<?xml version="1.0" encoding="UTF-8" standalone="no"?>
<!DOCTYPE svg PUBLIC "-//W3C//DTD SVG 1.1//EN" "http://www.w3.org/Graphics/SVG/1.1/DTD/svg11.dtd">
<svg width="100%" height="100%" viewBox="0 0 100 100" version="1.1" xmlns="http://www.w3.org/2000/svg" xmlns:xlink="http://www.w3.org/1999/xlink" xml:space="preserve" xmlns:serif="http://www.serif.com/" style="fill-rule:evenodd;clip-rule:evenodd;stroke-linejoin:round;stroke-miterlimit:2;">
    <g transform="matrix(1.47061,0,0,1.47061,3.7015,2.92135)">
        <g>
            <path d="M53,22C48.14,22 45.19,34.58 52,35.9L52,41C52,46.81 50,55 50,58C50,60.31 50.69,63 53,63C55.31,63 56,60.31 56,58C56,54.94 54,46.81 54,41L54,35.9C60.85,34.57 57.81,22 53,22Z" style="fill:rgb(251,190,122);fill-rule:nonzero;"/>
            <path d="M37,5C30.39,5 26.14,22.31 35.15,24.75C36.3,25.4 36,27.53 36,36C36,49 30.81,63 37,63C43.19,63 38,48.94 38,36C38,28.08 37.66,25.42 38.85,24.75C47.87,22.31 43.6,5 37,5Z" style="fill:rgb(251,190,122);fill-rule:nonzero;"/>
            <path d="M18,29.73C17.983,31.112 18.762,32.386 20,33C21.231,33.626 22.007,34.899 22,36.28C21.85,53.1 20,54.18 20,58.01C20,64.01 25,64.54 25,60.01C25,31.29 24.79,33.55 26,1.01C19.26,1 18,23.05 18,29.73Z" style="fill:rgb(251,190,122);fill-rule:nonzero;"/>
            <path d="M13,6C13,20.26 13,19.17 12.87,19.5C12.693,19.813 12.36,20.007 12,20.007C11.451,20.007 11,19.556 11,19.007C11,19.005 11,19.002 11,19L11,6C11,5.451 10.549,5 10,5C9.451,5 9,5.451 9,6L9,19C8.998,19.547 8.547,19.997 8,19.997C7.64,19.997 7.307,19.803 7.13,19.49C7,19.17 7,20.17 7,6C7,5.451 6.549,5 6,5C5.451,5 5,5.451 5,6C5,22.67 4.61,22.66 6.47,24.54C6.864,24.956 7.332,25.295 7.85,25.54C7.931,25.638 8.029,25.719 8.14,25.78C9.27,26.35 9,28.36 9,36C9,49 3.81,63 10,63C16.19,63 11,48.94 11,36C11,25.08 10.88,26.9 12.12,25.53C13.875,24.708 15.001,22.938 15,21L15,6C15,5.451 14.549,5 14,5C13.451,5 13,5.451 13,6Z" style="fill:rgb(251,190,122);fill-rule:nonzero;"/>
        </g>
    </g>
</svg>
